<?xml version="1.0" encoding="UTF-8"?>
<svg xmlns="http://www.w3.org/2000/svg" xmlns:xlink="http://www.w3.org/1999/xlink" width="44px" height="50px" viewBox="0 0 44 49" version="1.1">
<g id="surface1">
<path style=" stroke:none;fill-rule:nonzero;fill:rgb(0%,0%,0%);fill-opacity:1;" d="M 12.164062 0.0273438 C 12.078125 0.0351562 11.820312 0.078125 11.585938 0.117188 C 9.613281 0.476562 7.925781 1.753906 7.046875 3.539062 C 6.085938 5.484375 6.207031 7.746094 7.367188 9.589844 C 8.117188 10.777344 9.316406 11.714844 10.691406 12.183594 C 11.289062 12.390625 11.8125 12.488281 12.445312 12.511719 L 12.992188 12.527344 L 13.347656 13.507812 C 13.542969 14.050781 13.703125 14.507812 13.703125 14.53125 C 13.703125 14.554688 13.605469 14.601562 13.488281 14.640625 C 12.769531 14.859375 12.363281 15.269531 12.28125 15.847656 C 12.265625 15.972656 12.230469 16.042969 12.191406 16.058594 C 12.152344 16.074219 11.605469 16.265625 10.976562 16.484375 C 10.347656 16.707031 9.539062 16.988281 9.1875 17.113281 C 8.832031 17.234375 7.898438 17.5625 7.105469 17.839844 C 6.3125 18.113281 5.523438 18.390625 5.355469 18.453125 L 5.046875 18.5625 L 4.96875 18.460938 C 4.789062 18.21875 4.199219 17.683594 3.917969 17.503906 C 3.417969 17.179688 2.957031 17.039062 2.414062 17.035156 C 1.308594 17.035156 0.480469 17.769531 0.128906 19.050781 C 0.0390625 19.386719 0.0273438 19.5 0.0234375 20.078125 C 0.0234375 20.621094 0.0351562 20.792969 0.109375 21.125 C 0.480469 22.757812 1.398438 24.027344 2.628906 24.597656 C 3.058594 24.796875 3.300781 24.851562 3.730469 24.855469 C 4.796875 24.859375 5.621094 24.160156 5.972656 22.957031 C 6.066406 22.625 6.164062 21.859375 6.140625 21.621094 L 6.128906 21.507812 L 6.734375 21.296875 C 7.378906 21.070312 8.902344 20.539062 10.773438 19.882812 C 11.410156 19.660156 12.246094 19.371094 12.628906 19.234375 L 13.324219 18.988281 L 13.496094 19.144531 C 13.589844 19.230469 13.75 19.332031 13.847656 19.378906 C 14.066406 19.472656 14.550781 19.511719 14.773438 19.449219 C 14.875 19.425781 14.929688 19.425781 14.949219 19.449219 C 14.960938 19.46875 15.054688 19.796875 15.15625 20.167969 C 15.585938 21.730469 16.261719 23.925781 17.4375 27.542969 C 19.070312 32.558594 19.660156 34.496094 20.105469 36.273438 C 20.953125 39.671875 20.953125 41.507812 20.113281 41.890625 C 18.859375 42.464844 16.148438 41.984375 12.824219 40.597656 C 12.136719 40.308594 10.644531 39.574219 10.121094 39.261719 C 9.617188 38.964844 9.105469 38.597656 9.082031 38.527344 C 9.0625 38.464844 9.753906 38.160156 10.375 37.960938 L 10.921875 37.78125 L 11.6875 36.546875 C 12.347656 35.496094 12.449219 35.3125 12.390625 35.289062 C 12.351562 35.273438 9.71875 34.925781 6.539062 34.511719 C 3.359375 34.097656 0.734375 33.753906 0.703125 33.742188 C 0.667969 33.730469 0.65625 33.75 0.671875 33.808594 C 0.679688 33.859375 1.074219 34.828125 1.546875 35.964844 C 2.015625 37.101562 3.140625 39.832031 4.046875 42.03125 C 4.953125 44.234375 5.707031 46.046875 5.722656 46.0625 C 5.785156 46.132812 6.101562 45.496094 6.21875 45.078125 C 6.417969 44.363281 6.714844 43.085938 6.96875 41.871094 L 7.054688 41.460938 L 7.332031 41.753906 C 7.484375 41.910156 7.621094 42.0625 7.636719 42.089844 C 7.691406 42.179688 8.859375 43.21875 9.359375 43.621094 C 10.539062 44.574219 13.132812 46.410156 14.039062 46.933594 C 17.332031 48.847656 22.1875 49.496094 26.3125 48.574219 C 28.59375 48.0625 30.53125 47.132812 32.484375 45.613281 C 32.699219 45.445312 33.027344 45.191406 33.207031 45.054688 C 34.890625 43.746094 36.199219 42.019531 37.109375 39.894531 C 37.714844 38.484375 38.074219 37.191406 38.730469 34.082031 C 38.90625 33.265625 39.128906 32.25 39.234375 31.832031 C 39.4375 31.023438 39.726562 30.050781 39.777344 30 C 39.796875 29.980469 39.972656 30.105469 40.171875 30.269531 C 40.730469 30.726562 41.644531 31.445312 42.253906 31.894531 L 42.796875 32.300781 L 43.394531 32.492188 L 43.984375 32.683594 L 43.984375 32.527344 C 43.984375 32.429688 43.828125 31.910156 43.578125 31.160156 C 43.355469 30.5 42.730469 28.636719 42.195312 27.027344 C 41.65625 25.414062 40.992188 23.425781 40.714844 22.605469 C 40.4375 21.78125 40.140625 20.886719 40.050781 20.613281 C 39.964844 20.339844 39.875 20.101562 39.859375 20.085938 C 39.84375 20.066406 38.042969 21.996094 35.863281 24.375 C 33.683594 26.746094 31.886719 28.703125 31.867188 28.714844 C 31.847656 28.730469 31.847656 28.75 31.863281 28.761719 C 31.882812 28.769531 32.460938 28.960938 33.152344 29.1875 L 34.40625 29.585938 L 34.667969 29.480469 C 35.085938 29.304688 35.6875 29.109375 36.019531 29.035156 C 36.316406 28.972656 36.332031 28.972656 36.382812 29.039062 C 36.5 29.195312 36.40625 29.855469 36.179688 30.453125 C 35.65625 31.832031 34.527344 33.859375 33.195312 35.796875 C 32.800781 36.375 32.664062 36.539062 32.253906 36.933594 C 31.4375 37.710938 30.738281 38.214844 30.117188 38.464844 C 29.769531 38.601562 29.273438 38.625 29.023438 38.515625 C 28.71875 38.382812 28.464844 38.179688 28.207031 37.84375 C 27.636719 37.121094 27.332031 36.554688 26.496094 34.703125 C 25.28125 31.996094 22.625 25.722656 19.976562 19.273438 L 19.390625 17.859375 L 19.648438 17.738281 C 20.09375 17.535156 20.410156 17.125 20.46875 16.675781 L 20.492188 16.488281 L 21.449219 16.15625 C 24.4375 15.109375 26.335938 14.449219 26.972656 14.226562 L 27.691406 13.972656 L 27.789062 14.09375 C 28.164062 14.582031 28.796875 15.09375 29.28125 15.3125 C 29.8125 15.550781 30.433594 15.613281 30.925781 15.484375 C 32.101562 15.175781 32.839844 13.878906 32.761719 12.269531 C 32.667969 10.429688 31.640625 8.707031 30.226562 8.015625 C 29.777344 7.800781 29.496094 7.734375 29.058594 7.734375 C 28.410156 7.734375 28.011719 7.902344 27.539062 8.363281 C 26.96875 8.914062 26.695312 9.625 26.644531 10.640625 L 26.628906 11.003906 L 26.460938 11.070312 C 26.367188 11.109375 25.648438 11.363281 24.851562 11.636719 C 24.0625 11.914062 23.125 12.242188 22.769531 12.363281 C 20.097656 13.304688 19.480469 13.511719 19.449219 13.511719 C 19.429688 13.511719 19.34375 13.453125 19.261719 13.378906 C 19.070312 13.207031 18.871094 13.109375 18.597656 13.058594 C 18.324219 13 18.113281 13.027344 17.675781 13.171875 C 17.492188 13.234375 17.34375 13.28125 17.339844 13.273438 C 17.335938 13.269531 17.167969 12.816406 16.976562 12.269531 L 16.617188 11.273438 L 16.824219 11.105469 C 18.082031 10.074219 18.878906 8.640625 19.09375 7.015625 C 19.285156 5.558594 18.917969 4.046875 18.054688 2.769531 C 17.671875 2.199219 16.914062 1.453125 16.335938 1.074219 C 15.089844 0.265625 13.632812 -0.101562 12.164062 0.0273438 Z M 13.585938 3.195312 C 14.941406 3.550781 15.910156 4.707031 15.984375 6.074219 C 16.039062 6.996094 15.714844 7.855469 15.0625 8.5 C 14.644531 8.917969 14.160156 9.191406 13.582031 9.347656 C 13.324219 9.417969 13.152344 9.433594 12.765625 9.433594 C 12.183594 9.433594 11.886719 9.367188 11.386719 9.128906 C 10.367188 8.640625 9.71875 7.765625 9.570312 6.667969 C 9.421875 5.582031 9.914062 4.421875 10.800781 3.757812 C 11.144531 3.503906 11.609375 3.28125 11.988281 3.195312 C 12.148438 3.160156 12.300781 3.125 12.320312 3.117188 C 12.425781 3.078125 13.355469 3.136719 13.585938 3.195312 Z M 13.585938 3.195312 "/>
</g>
</svg>
